<svg xmlns="http://www.w3.org/2000/svg" width="800" height="490" viewBox="0 0 800 490"><title>Issue 304 — PcbTraceSegmentOddAngle</title><rect width="800" height="490" fill="#10271c"/><style>text{font-family:monospace}</style><text x="20" y="26" fill="#fff" font-size="16">Issue 304 — PcbTraceSegmentOddAngle</text><defs><clipPath id="board"><rect x="15" y="40" width="770" height="350"/></clipPath></defs><g clip-path="url(#board)"><line x1="267.2003" y1="393.2725" x2="267.3604" y2="393.4326" stroke="#74a9d8" stroke-width="6.9856" stroke-linecap="round"/><line x1="267.3604" y1="393.4326" x2="267.3604" y2="410.3239" stroke="#74a9d8" stroke-width="6.9856" stroke-linecap="round"/><line x1="346.7413" y1="220.5179" x2="363.2912" y2="218.5247" stroke="#74a9d8" stroke-width="6.9856" stroke-linecap="round"/><line x1="363.2912" y1="218.5247" x2="386.0212" y2="195.7948" stroke="#74a9d8" stroke-width="6.9856" stroke-linecap="round"/><line x1="386.0212" y1="195.7948" x2="402.4511" y2="179.3648" stroke="#74a9d8" stroke-width="6.9856" stroke-linecap="round"/><line x1="402.4511" y1="179.3648" x2="402.4511" y2="54.1889" stroke="#74a9d8" stroke-width="6.9856" stroke-linecap="round"/><line x1="402.4511" y1="54.1889" x2="414.7312" y2="41.9088" stroke="#74a9d8" stroke-width="6.9856" stroke-linecap="round"/><line x1="414.7312" y1="41.9088" x2="414.7312" y2="41.3442" stroke="#74a9d8" stroke-width="6.9856" stroke-linecap="round"/><line x1="414.7312" y1="41.3442" x2="416.831" y2="39.2444" stroke="#74a9d8" stroke-width="6.9856" stroke-linecap="round"/><line x1="281.5146" y1="161.376" x2="284.2451" y2="-70.7687" stroke="#74a9d8" stroke-width="6.9856" stroke-linecap="round"/><line x1="368.1716" y1="165.3101" x2="366.6048" y2="-28.4996" stroke="#74a9d8" stroke-width="6.9856" stroke-linecap="round"/><line x1="324.0887" y1="179.9614" x2="314.8353" y2="193.9671" stroke="#74a9d8" stroke-width="6.9856" stroke-linecap="round"/><line x1="314.8353" y1="193.9671" x2="314.8353" y2="213.5485" stroke="#74a9d8" stroke-width="6.9856" stroke-linecap="round"/><line x1="314.8353" y1="213.5485" x2="315.7428" y2="227.1321" stroke="#74a9d8" stroke-width="6.9856" stroke-linecap="round"/><line x1="315.7428" y1="227.1321" x2="327.7569" y2="243.4276" stroke="#74a9d8" stroke-width="6.9856" stroke-linecap="round"/><line x1="327.7569" y1="243.4276" x2="344.7966" y2="248.3621" stroke="#74a9d8" stroke-width="6.9856" stroke-linecap="round"/><line x1="344.7966" y1="248.3621" x2="346.2292" y2="247.813" stroke="#74a9d8" stroke-width="6.9856" stroke-linecap="round"/><line x1="346.2292" y1="247.813" x2="368.5509" y2="246.7961" stroke="#74a9d8" stroke-width="6.9856" stroke-linecap="round"/><line x1="368.5509" y1="246.7961" x2="431.4491" y2="183.2039" stroke="#74a9d8" stroke-width="6.9856" stroke-linecap="round"/><line x1="431.4491" y1="183.2039" x2="429.9426" y2="64.5667" stroke="#74a9d8" stroke-width="6.9856" stroke-linecap="round"/><line x1="429.9426" y1="64.5667" x2="445.9528" y2="50.7422" stroke="#74a9d8" stroke-width="6.9856" stroke-linecap="round"/><line x1="445.9528" y1="50.7422" x2="445.9528" y2="-44.972" stroke="#74a9d8" stroke-width="6.9856" stroke-linecap="round"/><line x1="693.8609" y1="388.8716" x2="546.6925" y2="388.8716" stroke="#74a9d8" stroke-width="6.9856" stroke-linecap="round"/><line x1="457.5332" y1="91.7209" x2="461.5523" y2="96.6794" stroke="#74a9d8" stroke-width="6.9856" stroke-linecap="round"/><line x1="461.5523" y1="96.6794" x2="461.5523" y2="200.8765" stroke="#74a9d8" stroke-width="6.9856" stroke-linecap="round"/><line x1="461.5523" y1="200.8765" x2="323.2944" y2="339.1344" stroke="#74a9d8" stroke-width="6.9856" stroke-linecap="round"/><line x1="698.421" y1="309.2848" x2="446.7658" y2="309.2848" stroke="#74a9d8" stroke-width="6.9856" stroke-linecap="round"/><line x1="446.7658" y1="309.2848" x2="388.0106" y2="368.04" stroke="#74a9d8" stroke-width="6.9856" stroke-linecap="round"/><line x1="388.0106" y1="368.04" x2="388.0106" y2="743.4984" stroke="#74a9d8" stroke-width="6.9856" stroke-linecap="round"/><line x1="652.9116" y1="269.5358" x2="445.1805" y2="269.5358" stroke="#74a9d8" stroke-width="6.9856" stroke-linecap="round"/><line x1="445.1805" y1="269.5358" x2="299.5435" y2="415.1728" stroke="#74a9d8" stroke-width="6.9856" stroke-linecap="round"/><line x1="771.0814" y1="238.7751" x2="573.1677" y2="242.2921" stroke="#74a9d8" stroke-width="6.9856" stroke-linecap="round"/><line x1="59.7935" y1="198.1016" x2="258.9798" y2="397.288" stroke="#74a9d8" stroke-width="6.9856" stroke-linecap="round"/><line x1="368.5509" y1="246.7961" x2="431.4491" y2="183.2039" stroke="#ff5555" stroke-width="12.574" stroke-linecap="round"/><circle cx="400" cy="215" r="10" fill="#fff" stroke="#ff5555" stroke-width="2"/><text x="400" y="219" text-anchor="middle" fill="#9b1111" font-size="11">1</text></g><rect x="0" y="400" width="800" height="90" fill="#f1f5f9"/><text x="16" y="423" fill="#152d22" font-size="11">source_trace_71__source_trace_129__source_trace_131_mst2_0 segment 17 on bottom is at 45.314° (0.314° from a 45° direction)</text><text x="16" y="445" fill="#152d22" font-size="11">Start (-23.898, 28.881) → End (-22.998, 29.791) mm</text><text x="16" y="467" fill="#152d22" font-size="11">Layer: bottom | Circuit JSON index: 952 | Route indices: 17 → 18</text></svg>
