<svg xmlns="http://www.w3.org/2000/svg" width="800" height="490" viewBox="0 0 800 490"><title>Issue 251 — PcbTraceSegmentOddAngle</title><rect width="800" height="490" fill="#10271c"/><style>text{font-family:monospace}</style><text x="20" y="26" fill="#fff" font-size="16">Issue 251 — PcbTraceSegmentOddAngle</text><defs><clipPath id="board"><rect x="15" y="40" width="770" height="350"/></clipPath></defs><g clip-path="url(#board)"><line x1="283.1132" y1="307.055" x2="283.1078" y2="307.0506" stroke="#9aa9a2" stroke-width="8.5218" stroke-linecap="round"/><line x1="283.1078" y1="307.0506" x2="247.1766" y2="307.0506" stroke="#9aa9a2" stroke-width="8.5218" stroke-linecap="round"/><line x1="247.1766" y1="307.0506" x2="246.8901" y2="307.0506" stroke="#9aa9a2" stroke-width="8.5218" stroke-linecap="round"/><line x1="246.8901" y1="307.0506" x2="234.9496" y2="289.9303" stroke="#9aa9a2" stroke-width="8.5218" stroke-linecap="round"/><line x1="234.9496" y1="289.9303" x2="227.9147" y2="269.7718" stroke="#9aa9a2" stroke-width="8.5218" stroke-linecap="round"/><line x1="227.9147" y1="269.7718" x2="219.1942" y2="260.7415" stroke="#9aa9a2" stroke-width="8.5218" stroke-linecap="round"/><line x1="219.1942" y1="260.7415" x2="218.7807" y2="254.4" stroke="#9aa9a2" stroke-width="8.5218" stroke-linecap="round"/><line x1="409.2306" y1="102.6123" x2="410.6106" y2="101.2324" stroke="#9aa9a2" stroke-width="8.5218" stroke-linecap="round"/><line x1="410.6106" y1="101.2324" x2="427.0347" y2="101.2324" stroke="#9aa9a2" stroke-width="8.5218" stroke-linecap="round"/><line x1="427.0347" y1="101.2324" x2="450.4532" y2="77.8139" stroke="#9aa9a2" stroke-width="8.5218" stroke-linecap="round"/><line x1="450.4532" y1="77.8139" x2="502.5444" y2="77.8139" stroke="#9aa9a2" stroke-width="8.5218" stroke-linecap="round"/><line x1="177.0711" y1="307.055" x2="283.1132" y2="307.055" stroke="#9aa9a2" stroke-width="8.5218" stroke-linecap="round"/><line x1="283.1132" y1="238.872" x2="334.3239" y2="238.8761" stroke="#9aa9a2" stroke-width="12.7827" stroke-linecap="round"/><line x1="334.3239" y1="238.8761" x2="357.1624" y2="216.0376" stroke="#9aa9a2" stroke-width="12.7827" stroke-linecap="round"/><line x1="283.1132" y1="272.9635" x2="348.5821" y2="272.9633" stroke="#9aa9a2" stroke-width="8.5218" stroke-linecap="round"/><line x1="348.5821" y1="272.9633" x2="360.413" y2="261.1325" stroke="#9aa9a2" stroke-width="8.5218" stroke-linecap="round"/><line x1="360.413" y1="261.1325" x2="403.5985" y2="217.947" stroke="#9aa9a2" stroke-width="8.5218" stroke-linecap="round"/><line x1="403.5985" y1="217.947" x2="403.5985" y2="214.6971" stroke="#9aa9a2" stroke-width="8.5218" stroke-linecap="round"/><line x1="403.5985" y1="214.6971" x2="396.4015" y2="215.3029" stroke="#9aa9a2" stroke-width="8.5218" stroke-linecap="round"/><line x1="396.4015" y1="215.3029" x2="404.3268" y2="200.2193" stroke="#9aa9a2" stroke-width="8.5218" stroke-linecap="round"/><line x1="404.3268" y1="200.2193" x2="425.1553" y2="179.8095" stroke="#9aa9a2" stroke-width="8.5218" stroke-linecap="round"/><line x1="425.1553" y1="179.8095" x2="1429.7879" y2="184.379" stroke="#9aa9a2" stroke-width="8.5218" stroke-linecap="round"/><line x1="472.7172" y1="264.4352" x2="361.9273" y2="375.2251" stroke="#9aa9a2" stroke-width="12.7827" stroke-linecap="round"/><line x1="361.9273" y1="375.2251" x2="283.1132" y2="375.238" stroke="#9aa9a2" stroke-width="12.7827" stroke-linecap="round"/><line x1="644.8879" y1="375.039" x2="583.3156" y2="375.039" stroke="#9aa9a2" stroke-width="8.5218" stroke-linecap="round"/><line x1="583.3156" y1="375.039" x2="472.7172" y2="264.4352" stroke="#9aa9a2" stroke-width="8.5218" stroke-linecap="round"/><line x1="617.5898" y1="451.9277" x2="537.5052" y2="371.843" stroke="#9aa9a2" stroke-width="12.7827" stroke-linecap="round"/><line x1="537.5052" y1="371.843" x2="416.4204" y2="371.843" stroke="#9aa9a2" stroke-width="12.7827" stroke-linecap="round"/><line x1="416.4204" y1="371.843" x2="378.9511" y2="409.3123" stroke="#9aa9a2" stroke-width="12.7827" stroke-linecap="round"/><line x1="212.8089" y1="66.3149" x2="237.857" y2="41.2553" stroke="#9aa9a2" stroke-width="8.5218" stroke-linecap="round"/><line x1="237.857" y1="41.2553" x2="288.9879" y2="41.2553" stroke="#9aa9a2" stroke-width="8.5218" stroke-linecap="round"/><line x1="283.1132" y1="136.6191" x2="384.8509" y2="34.8713" stroke="#9aa9a2" stroke-width="8.5218" stroke-linecap="round"/><line x1="384.8509" y1="34.8713" x2="539.0503" y2="34.8713" stroke="#9aa9a2" stroke-width="8.5218" stroke-linecap="round"/><line x1="539.0503" y1="34.8713" x2="610.4605" y2="106.2815" stroke="#9aa9a2" stroke-width="8.5218" stroke-linecap="round"/><line x1="283.1132" y1="170.7106" x2="401.6107" y2="170.7016" stroke="#9aa9a2" stroke-width="8.5218" stroke-linecap="round"/><line x1="401.6107" y1="170.7016" x2="423.1335" y2="149.1788" stroke="#9aa9a2" stroke-width="8.5218" stroke-linecap="round"/><line x1="423.1335" y1="149.1788" x2="1096.392" y2="149.1788" stroke="#9aa9a2" stroke-width="8.5218" stroke-linecap="round"/><line x1="216.7229" y1="359.1188" x2="221.3602" y2="354.4816" stroke="#9aa9a2" stroke-width="8.5218" stroke-linecap="round"/><line x1="221.3602" y1="354.4816" x2="224.7309" y2="354.4816" stroke="#9aa9a2" stroke-width="8.5218" stroke-linecap="round"/><line x1="224.7309" y1="354.4816" x2="238.066" y2="341.1465" stroke="#9aa9a2" stroke-width="8.5218" stroke-linecap="round"/><line x1="238.066" y1="341.1465" x2="283.1132" y2="341.1465" stroke="#9aa9a2" stroke-width="8.5218" stroke-linecap="round"/><line x1="212.0057" y1="170.7566" x2="246.0512" y2="204.8022" stroke="#9aa9a2" stroke-width="8.5218" stroke-linecap="round"/><line x1="246.0512" y1="204.8022" x2="283.1132" y2="204.8022" stroke="#9aa9a2" stroke-width="8.5218" stroke-linecap="round"/><line x1="283.1132" y1="341.1465" x2="205.9795" y2="341.9012" stroke="#9aa9a2" stroke-width="8.5218" stroke-linecap="round"/><line x1="283.1132" y1="341.1465" x2="205.6446" y2="341.1378" stroke="#9aa9a2" stroke-width="8.5218" stroke-linecap="round"/><line x1="403.5985" y1="214.6971" x2="396.4015" y2="215.3029" stroke="#ff5555" stroke-width="15.3393" stroke-linecap="round"/><circle cx="400" cy="215" r="10" fill="#fff" stroke="#ff5555" stroke-width="2"/><text x="400" y="219" text-anchor="middle" fill="#9b1111" font-size="11">1</text></g><rect x="0" y="400" width="800" height="90" fill="#f1f5f9"/><text x="16" y="423" fill="#152d22" font-size="11">source_trace_141_0 segment 4 on top is at 184.811° (4.811° from a 45° direction)</text><text x="16" y="445" fill="#152d22" font-size="11">Start (-13.661, 32.684) → End (-13.746, 32.677) mm</text><text x="16" y="467" fill="#152d22" font-size="11">Layer: top | Circuit JSON index: 933 | Route indices: 4 → 5</text></svg>
