<svg xmlns="http://www.w3.org/2000/svg" width="800" height="490" viewBox="0 0 800 490"><title>Issue 502 — PcbTraceSegmentOddAngle</title><rect width="800" height="490" fill="#10271c"/><style>text{font-family:monospace}</style><text x="20" y="26" fill="#fff" font-size="16">Issue 502 — PcbTraceSegmentOddAngle</text><defs><clipPath id="board"><rect x="15" y="40" width="770" height="350"/></clipPath></defs><g clip-path="url(#board)"><line x1="418.1297" y1="278.4691" x2="418.1297" y2="327.667" stroke="#9aa9a2" stroke-width="8.1996" stroke-linecap="round"/><line x1="418.1297" y1="327.667" x2="523.9052" y2="433.4425" stroke="#9aa9a2" stroke-width="8.1996" stroke-linecap="round"/><line x1="418.1297" y1="278.4691" x2="418.1297" y2="226.5611" stroke="#9aa9a2" stroke-width="8.1996" stroke-linecap="round"/><line x1="418.1297" y1="226.5611" x2="396.4153" y2="204.8467" stroke="#9aa9a2" stroke-width="8.1996" stroke-linecap="round"/><line x1="396.4153" y1="204.8467" x2="384.5705" y2="198.7792" stroke="#9aa9a2" stroke-width="8.1996" stroke-linecap="round"/><line x1="384.5705" y1="198.7792" x2="377.5242" y2="198.7792" stroke="#9aa9a2" stroke-width="8.1996" stroke-linecap="round"/><line x1="377.5242" y1="198.7792" x2="174.4468" y2="198.7792" stroke="#9aa9a2" stroke-width="8.1996" stroke-linecap="round"/><line x1="334.4933" y1="278.4691" x2="333.3509" y2="277.3268" stroke="#9aa9a2" stroke-width="8.1996" stroke-linecap="round"/><line x1="333.3509" y1="277.3268" x2="143.7498" y2="277.3268" stroke="#9aa9a2" stroke-width="8.1996" stroke-linecap="round"/><line x1="334.4933" y1="278.4691" x2="374.5895" y2="238.3728" stroke="#9aa9a2" stroke-width="8.1996" stroke-linecap="round"/><line x1="374.5895" y1="238.3728" x2="374.5895" y2="231.7311" stroke="#9aa9a2" stroke-width="8.1996" stroke-linecap="round"/><line x1="356.5712" y1="-8.7189" x2="516.8281" y2="151.538" stroke="#9aa9a2" stroke-width="8.1996" stroke-linecap="round"/><line x1="516.8281" y1="151.538" x2="875.0136" y2="151.538" stroke="#9aa9a2" stroke-width="8.1996" stroke-linecap="round"/><line x1="195.1915" y1="147.1748" x2="367.3822" y2="147.1748" stroke="#9aa9a2" stroke-width="8.1996" stroke-linecap="round"/><line x1="367.3822" y1="147.1748" x2="406.0252" y2="185.8178" stroke="#9aa9a2" stroke-width="8.1996" stroke-linecap="round"/><line x1="406.0252" y1="185.8178" x2="401.0744" y2="181.3033" stroke="#9aa9a2" stroke-width="8.1996" stroke-linecap="round"/><line x1="401.0744" y1="181.3033" x2="421.104" y2="199.5678" stroke="#9aa9a2" stroke-width="8.1996" stroke-linecap="round"/><line x1="421.104" y1="199.5678" x2="612.3536" y2="390.8174" stroke="#9aa9a2" stroke-width="8.1996" stroke-linecap="round"/><line x1="310.9603" y1="110.9503" x2="311.6816" y2="111.6716" stroke="#9aa9a2" stroke-width="8.1996" stroke-linecap="round"/><line x1="311.6816" y1="111.6716" x2="325.631" y2="111.6716" stroke="#9aa9a2" stroke-width="8.1996" stroke-linecap="round"/><line x1="325.631" y1="111.6716" x2="375.3877" y2="111.6716" stroke="#9aa9a2" stroke-width="8.1996" stroke-linecap="round"/><line x1="375.3877" y1="111.6716" x2="441.5426" y2="177.8266" stroke="#9aa9a2" stroke-width="8.1996" stroke-linecap="round"/><line x1="441.5426" y1="177.8266" x2="583.0158" y2="177.7198" stroke="#9aa9a2" stroke-width="8.1996" stroke-linecap="round"/><line x1="-2.7884" y1="258.5995" x2="493.5665" y2="754.9543" stroke="#9aa9a2" stroke-width="8.1996" stroke-linecap="round"/><line x1="180.5557" y1="198.7685" x2="344.5271" y2="198.7685" stroke="#9aa9a2" stroke-width="8.1996" stroke-linecap="round"/><line x1="344.5271" y1="198.7685" x2="362.8152" y2="198.7911" stroke="#9aa9a2" stroke-width="8.1996" stroke-linecap="round"/><line x1="362.8152" y1="198.7911" x2="371.8652" y2="200.2339" stroke="#9aa9a2" stroke-width="8.1996" stroke-linecap="round"/><line x1="371.8652" y1="200.2339" x2="395.5978" y2="208.0928" stroke="#9aa9a2" stroke-width="8.1996" stroke-linecap="round"/><line x1="395.5978" y1="208.0928" x2="404.4022" y2="221.9072" stroke="#9aa9a2" stroke-width="8.1996" stroke-linecap="round"/><line x1="404.4022" y1="221.9072" x2="405.4658" y2="257.4064" stroke="#9aa9a2" stroke-width="8.1996" stroke-linecap="round"/><line x1="405.4658" y1="257.4064" x2="421.5245" y2="265.9311" stroke="#9aa9a2" stroke-width="8.1996" stroke-linecap="round"/><line x1="421.5245" y1="265.9311" x2="427.0554" y2="271.462" stroke="#9aa9a2" stroke-width="8.1996" stroke-linecap="round"/><line x1="427.0554" y1="271.462" x2="757.0233" y2="601.43" stroke="#9aa9a2" stroke-width="8.1996" stroke-linecap="round"/><line x1="180.5563" y1="198.7685" x2="344.5266" y2="198.7685" stroke="#9aa9a2" stroke-width="8.1996" stroke-linecap="round"/><line x1="344.5266" y1="198.7685" x2="358.1723" y2="199.5264" stroke="#9aa9a2" stroke-width="8.1996" stroke-linecap="round"/><line x1="358.1723" y1="199.5264" x2="388.1143" y2="203.2575" stroke="#9aa9a2" stroke-width="8.1996" stroke-linecap="round"/><line x1="388.1143" y1="203.2575" x2="404.4219" y2="216.14" stroke="#9aa9a2" stroke-width="8.1996" stroke-linecap="round"/><line x1="404.4219" y1="216.14" x2="405.2638" y2="246.4734" stroke="#9aa9a2" stroke-width="8.1996" stroke-linecap="round"/><line x1="405.2638" y1="246.4734" x2="409.4467" y2="255.7315" stroke="#9aa9a2" stroke-width="8.1996" stroke-linecap="round"/><line x1="409.4467" y1="255.7315" x2="421.4412" y2="259.9297" stroke="#9aa9a2" stroke-width="8.1996" stroke-linecap="round"/><line x1="421.4412" y1="259.9297" x2="421.4412" y2="264.7045" stroke="#9aa9a2" stroke-width="8.1996" stroke-linecap="round"/><line x1="421.4412" y1="264.7045" x2="421.4412" y2="330.9785" stroke="#9aa9a2" stroke-width="8.1996" stroke-linecap="round"/><line x1="421.4412" y1="330.9785" x2="523.9052" y2="433.4425" stroke="#9aa9a2" stroke-width="8.1996" stroke-linecap="round"/><line x1="180.5555" y1="198.7685" x2="344.5262" y2="198.7685" stroke="#9aa9a2" stroke-width="8.1996" stroke-linecap="round"/><line x1="344.5262" y1="198.7685" x2="373.4126" y2="199.7525" stroke="#9aa9a2" stroke-width="8.1996" stroke-linecap="round"/><line x1="373.4126" y1="199.7525" x2="388.1143" y2="203.2575" stroke="#9aa9a2" stroke-width="8.1996" stroke-linecap="round"/><line x1="388.1143" y1="203.2575" x2="404.4219" y2="216.14" stroke="#9aa9a2" stroke-width="8.1996" stroke-linecap="round"/><line x1="404.4219" y1="216.14" x2="405.2638" y2="246.4734" stroke="#9aa9a2" stroke-width="8.1996" stroke-linecap="round"/><line x1="405.2638" y1="246.4734" x2="409.4467" y2="255.7315" stroke="#9aa9a2" stroke-width="8.1996" stroke-linecap="round"/><line x1="409.4467" y1="255.7315" x2="422.5004" y2="265.9011" stroke="#9aa9a2" stroke-width="8.1996" stroke-linecap="round"/><line x1="422.5004" y1="265.9011" x2="424.0611" y2="267.4618" stroke="#9aa9a2" stroke-width="8.1996" stroke-linecap="round"/><line x1="424.0611" y1="267.4618" x2="637.92" y2="481.3207" stroke="#9aa9a2" stroke-width="8.1996" stroke-linecap="round"/><line x1="395.5978" y1="208.0928" x2="404.4022" y2="221.9072" stroke="#ff5555" stroke-width="14.7594" stroke-linecap="round"/><circle cx="400" cy="215" r="10" fill="#fff" stroke="#ff5555" stroke-width="2"/><text x="400" y="219" text-anchor="middle" fill="#9b1111" font-size="11">1</text></g><rect x="0" y="400" width="800" height="90" fill="#f1f5f9"/><text x="16" y="423" fill="#152d22" font-size="11">source_net_0_mst12_0 segment 6 on top is at 302.511° (12.489° from a 45° direction)</text><text x="16" y="445" fill="#152d22" font-size="11">Start (-7.765, 25.858) → End (-7.657, 25.690) mm</text><text x="16" y="467" fill="#152d22" font-size="11">Layer: top | Circuit JSON index: 1169 | Route indices: 6 → 7</text></svg>
