<svg xmlns="http://www.w3.org/2000/svg" width="800" height="490" viewBox="0 0 800 490"><title>Issue 344 — PcbTraceSegmentOddAngle</title><rect width="800" height="490" fill="#10271c"/><style>text{font-family:monospace}</style><text x="20" y="26" fill="#fff" font-size="16">Issue 344 — PcbTraceSegmentOddAngle</text><defs><clipPath id="board"><rect x="15" y="40" width="770" height="350"/></clipPath></defs><g clip-path="url(#board)"><line x1="-222.398" y1="19.9015" x2="372.1019" y2="614.4015" stroke="#74a9d8" stroke-width="12.1503" stroke-linecap="round"/><line x1="378.3137" y1="402.5655" x2="379.7718" y2="395.9233" stroke="#74a9d8" stroke-width="8.1002" stroke-linecap="round"/><line x1="379.7718" y1="395.9233" x2="379.6908" y2="386.5271" stroke="#74a9d8" stroke-width="8.1002" stroke-linecap="round"/><line x1="379.6908" y1="386.5271" x2="379.2858" y2="379.1559" stroke="#74a9d8" stroke-width="8.1002" stroke-linecap="round"/><line x1="379.2858" y1="379.1559" x2="378.3137" y2="370.0026" stroke="#74a9d8" stroke-width="8.1002" stroke-linecap="round"/><line x1="378.3137" y1="370.0026" x2="376.6937" y2="361.9024" stroke="#74a9d8" stroke-width="8.1002" stroke-linecap="round"/><line x1="376.6937" y1="361.9024" x2="387.062" y2="341.0039" stroke="#74a9d8" stroke-width="8.1002" stroke-linecap="round"/><line x1="387.062" y1="341.0039" x2="392.4081" y2="329.4206" stroke="#74a9d8" stroke-width="8.1002" stroke-linecap="round"/><line x1="392.4081" y1="329.4206" x2="393.2991" y2="305.2819" stroke="#74a9d8" stroke-width="8.1002" stroke-linecap="round"/><line x1="393.2991" y1="305.2819" x2="393.4611" y2="289.1625" stroke="#74a9d8" stroke-width="8.1002" stroke-linecap="round"/><line x1="393.4611" y1="289.1625" x2="389.33" y2="269.965" stroke="#74a9d8" stroke-width="8.1002" stroke-linecap="round"/><line x1="389.33" y1="269.965" x2="380.5818" y2="258.2197" stroke="#74a9d8" stroke-width="8.1002" stroke-linecap="round"/><line x1="380.5818" y1="258.2197" x2="375.5597" y2="243.3963" stroke="#74a9d8" stroke-width="8.1002" stroke-linecap="round"/><line x1="375.5597" y1="243.3963" x2="386.6123" y2="223.9457" stroke="#74a9d8" stroke-width="8.1002" stroke-linecap="round"/><line x1="386.6123" y1="223.9457" x2="413.3877" y2="206.0543" stroke="#74a9d8" stroke-width="8.1002" stroke-linecap="round"/><line x1="413.3877" y1="206.0543" x2="418.0858" y2="207.5934" stroke="#74a9d8" stroke-width="8.1002" stroke-linecap="round"/><line x1="418.0858" y1="207.5934" x2="430.3325" y2="187.4741" stroke="#74a9d8" stroke-width="8.1002" stroke-linecap="round"/><line x1="430.3325" y1="187.4741" x2="430.3325" y2="92.7963" stroke="#74a9d8" stroke-width="8.1002" stroke-linecap="round"/><line x1="430.3325" y1="92.7963" x2="357.6388" y2="20.1026" stroke="#74a9d8" stroke-width="8.1002" stroke-linecap="round"/><line x1="414.0678" y1="412.9611" x2="414.0678" y2="305.8398" stroke="#74a9d8" stroke-width="8.1002" stroke-linecap="round"/><line x1="414.0678" y1="305.8398" x2="414.0678" y2="249.1629" stroke="#74a9d8" stroke-width="8.1002" stroke-linecap="round"/><line x1="414.0678" y1="249.1629" x2="411.3193" y2="246.4145" stroke="#74a9d8" stroke-width="8.1002" stroke-linecap="round"/><line x1="481.8043" y1="24.1744" x2="568.9928" y2="118.0513" stroke="#74a9d8" stroke-width="8.1002" stroke-linecap="round"/><line x1="550.3898" y1="168.6033" x2="514.8395" y2="57.2096" stroke="#74a9d8" stroke-width="8.1002" stroke-linecap="round"/><line x1="514.8395" y1="57.2096" x2="514.8395" y2="-330.7738" stroke="#74a9d8" stroke-width="8.1002" stroke-linecap="round"/><line x1="386.6123" y1="223.9457" x2="413.3877" y2="206.0543" stroke="#ff5555" stroke-width="14.5804" stroke-linecap="round"/><circle cx="400" cy="215" r="10" fill="#fff" stroke="#ff5555" stroke-width="2"/><text x="400" y="219" text-anchor="middle" fill="#9b1111" font-size="11">1</text></g><rect x="0" y="400" width="800" height="90" fill="#f1f5f9"/><text x="16" y="423" fill="#152d22" font-size="11">source_trace_41_0 segment 31 on bottom is at 33.751° (11.249° from a 45° direction)</text><text x="16" y="445" fill="#152d22" font-size="11">Start (-21.912, 39.306) → End (-21.581, 39.527) mm</text><text x="16" y="467" fill="#152d22" font-size="11">Layer: bottom | Circuit JSON index: 957 | Route indices: 31 → 32</text></svg>
