<svg xmlns="http://www.w3.org/2000/svg" width="800" height="490" viewBox="0 0 800 490"><title>Issue 535 — PcbTraceSegmentOddAngle</title><rect width="800" height="490" fill="#10271c"/><style>text{font-family:monospace}</style><text x="20" y="26" fill="#fff" font-size="16">Issue 535 — PcbTraceSegmentOddAngle</text><defs><clipPath id="board"><rect x="15" y="40" width="770" height="350"/></clipPath></defs><g clip-path="url(#board)"><line x1="438.5003" y1="294.3" x2="438.5003" y2="344.991" stroke="#9aa9a2" stroke-width="8.4485" stroke-linecap="round"/><line x1="438.5003" y1="344.991" x2="547.486" y2="453.9767" stroke="#9aa9a2" stroke-width="8.4485" stroke-linecap="round"/><line x1="438.5003" y1="294.3" x2="438.5003" y2="240.8166" stroke="#9aa9a2" stroke-width="8.4485" stroke-linecap="round"/><line x1="438.5003" y1="240.8166" x2="416.1269" y2="218.4432" stroke="#9aa9a2" stroke-width="8.4485" stroke-linecap="round"/><line x1="416.1269" y1="218.4432" x2="403.9226" y2="212.1915" stroke="#9aa9a2" stroke-width="8.4485" stroke-linecap="round"/><line x1="403.9226" y1="212.1915" x2="396.6624" y2="212.1915" stroke="#9aa9a2" stroke-width="8.4485" stroke-linecap="round"/><line x1="396.6624" y1="212.1915" x2="187.4218" y2="212.1915" stroke="#9aa9a2" stroke-width="8.4485" stroke-linecap="round"/><line x1="352.3255" y1="294.3" x2="351.1485" y2="293.1229" stroke="#9aa9a2" stroke-width="8.4485" stroke-linecap="round"/><line x1="351.1485" y1="293.1229" x2="155.7931" y2="293.1229" stroke="#9aa9a2" stroke-width="8.4485" stroke-linecap="round"/><line x1="352.3255" y1="294.3" x2="393.6387" y2="252.9868" stroke="#9aa9a2" stroke-width="8.4485" stroke-linecap="round"/><line x1="393.6387" y1="252.9868" x2="393.6387" y2="246.1435" stroke="#9aa9a2" stroke-width="8.4485" stroke-linecap="round"/><line x1="375.0735" y1="-1.604" x2="540.1941" y2="163.5166" stroke="#9aa9a2" stroke-width="8.4485" stroke-linecap="round"/><line x1="540.1941" y1="163.5166" x2="909.2503" y2="163.5166" stroke="#9aa9a2" stroke-width="8.4485" stroke-linecap="round"/><line x1="208.7961" y1="159.0209" x2="386.2126" y2="159.0209" stroke="#9aa9a2" stroke-width="8.4485" stroke-linecap="round"/><line x1="386.2126" y1="159.0209" x2="426.0284" y2="198.8367" stroke="#9aa9a2" stroke-width="8.4485" stroke-linecap="round"/><line x1="426.0284" y1="198.8367" x2="420.9274" y2="194.1852" stroke="#9aa9a2" stroke-width="8.4485" stroke-linecap="round"/><line x1="420.9274" y1="194.1852" x2="441.5648" y2="213.004" stroke="#9aa9a2" stroke-width="8.4485" stroke-linecap="round"/><line x1="441.5648" y1="213.004" x2="638.6188" y2="410.058" stroke="#9aa9a2" stroke-width="8.4485" stroke-linecap="round"/><line x1="328.0783" y1="121.697" x2="328.8215" y2="122.4403" stroke="#9aa9a2" stroke-width="8.4485" stroke-linecap="round"/><line x1="328.8215" y1="122.4403" x2="343.1943" y2="122.4403" stroke="#9aa9a2" stroke-width="8.4485" stroke-linecap="round"/><line x1="343.1943" y1="122.4403" x2="394.4611" y2="122.4403" stroke="#9aa9a2" stroke-width="8.4485" stroke-linecap="round"/><line x1="394.4611" y1="122.4403" x2="462.6238" y2="190.603" stroke="#9aa9a2" stroke-width="8.4485" stroke-linecap="round"/><line x1="462.6238" y1="190.603" x2="608.3906" y2="190.493" stroke="#9aa9a2" stroke-width="8.4485" stroke-linecap="round"/><line x1="4.8076" y1="273.8273" x2="516.2265" y2="785.2462" stroke="#9aa9a2" stroke-width="8.4485" stroke-linecap="round"/><line x1="193.7161" y1="212.1805" x2="362.6639" y2="212.1805" stroke="#9aa9a2" stroke-width="8.4485" stroke-linecap="round"/><line x1="362.6639" y1="212.1805" x2="381.507" y2="212.2038" stroke="#9aa9a2" stroke-width="8.4485" stroke-linecap="round"/><line x1="381.507" y1="212.2038" x2="390.8317" y2="213.6904" stroke="#9aa9a2" stroke-width="8.4485" stroke-linecap="round"/><line x1="390.8317" y1="213.6904" x2="415.2845" y2="221.7878" stroke="#9aa9a2" stroke-width="8.4485" stroke-linecap="round"/><line x1="415.2845" y1="221.7878" x2="424.3562" y2="236.0214" stroke="#9aa9a2" stroke-width="8.4485" stroke-linecap="round"/><line x1="424.3562" y1="236.0214" x2="425.452" y2="272.5979" stroke="#9aa9a2" stroke-width="8.4485" stroke-linecap="round"/><line x1="425.452" y1="272.5979" x2="441.9981" y2="281.3814" stroke="#9aa9a2" stroke-width="8.4485" stroke-linecap="round"/><line x1="441.9981" y1="281.3814" x2="447.6969" y2="287.0802" stroke="#9aa9a2" stroke-width="8.4485" stroke-linecap="round"/><line x1="447.6969" y1="287.0802" x2="787.6792" y2="627.0625" stroke="#9aa9a2" stroke-width="8.4485" stroke-linecap="round"/><line x1="193.7166" y1="212.1805" x2="362.6633" y2="212.1805" stroke="#9aa9a2" stroke-width="8.4485" stroke-linecap="round"/><line x1="362.6633" y1="212.1805" x2="376.7232" y2="212.9614" stroke="#9aa9a2" stroke-width="8.4485" stroke-linecap="round"/><line x1="376.7232" y1="212.9614" x2="407.5739" y2="216.8057" stroke="#9aa9a2" stroke-width="8.4485" stroke-linecap="round"/><line x1="407.5739" y1="216.8057" x2="424.3764" y2="230.0792" stroke="#9aa9a2" stroke-width="8.4485" stroke-linecap="round"/><line x1="424.3764" y1="230.0792" x2="425.2439" y2="261.3332" stroke="#9aa9a2" stroke-width="8.4485" stroke-linecap="round"/><line x1="425.2439" y1="261.3332" x2="429.5537" y2="270.8723" stroke="#9aa9a2" stroke-width="8.4485" stroke-linecap="round"/><line x1="429.5537" y1="270.8723" x2="441.9123" y2="275.1978" stroke="#9aa9a2" stroke-width="8.4485" stroke-linecap="round"/><line x1="441.9123" y1="275.1978" x2="441.9123" y2="280.1176" stroke="#9aa9a2" stroke-width="8.4485" stroke-linecap="round"/><line x1="441.9123" y1="280.1176" x2="441.9123" y2="348.403" stroke="#9aa9a2" stroke-width="8.4485" stroke-linecap="round"/><line x1="441.9123" y1="348.403" x2="547.486" y2="453.9767" stroke="#9aa9a2" stroke-width="8.4485" stroke-linecap="round"/><line x1="193.7158" y1="212.1805" x2="362.663" y2="212.1805" stroke="#9aa9a2" stroke-width="8.4485" stroke-linecap="round"/><line x1="362.663" y1="212.1805" x2="392.4261" y2="213.1943" stroke="#9aa9a2" stroke-width="8.4485" stroke-linecap="round"/><line x1="392.4261" y1="213.1943" x2="407.5739" y2="216.8057" stroke="#9aa9a2" stroke-width="8.4485" stroke-linecap="round"/><line x1="407.5739" y1="216.8057" x2="424.3764" y2="230.0792" stroke="#9aa9a2" stroke-width="8.4485" stroke-linecap="round"/><line x1="424.3764" y1="230.0792" x2="425.2439" y2="261.3332" stroke="#9aa9a2" stroke-width="8.4485" stroke-linecap="round"/><line x1="425.2439" y1="261.3332" x2="429.5537" y2="270.8723" stroke="#9aa9a2" stroke-width="8.4485" stroke-linecap="round"/><line x1="429.5537" y1="270.8723" x2="443.0037" y2="281.3505" stroke="#9aa9a2" stroke-width="8.4485" stroke-linecap="round"/><line x1="443.0037" y1="281.3505" x2="444.6117" y2="282.9585" stroke="#9aa9a2" stroke-width="8.4485" stroke-linecap="round"/><line x1="444.6117" y1="282.9585" x2="664.9611" y2="503.3079" stroke="#9aa9a2" stroke-width="8.4485" stroke-linecap="round"/><line x1="392.4261" y1="213.1943" x2="407.5739" y2="216.8057" stroke="#ff5555" stroke-width="15.2073" stroke-linecap="round"/><circle cx="400" cy="215" r="10" fill="#fff" stroke="#ff5555" stroke-width="2"/><text x="400" y="219" text-anchor="middle" fill="#9b1111" font-size="11">1</text></g><rect x="0" y="400" width="800" height="90" fill="#f1f5f9"/><text x="16" y="423" fill="#152d22" font-size="11">source_net_0_mst24_0 segment 4 on top is at 346.591° (13.409° from a 45° direction)</text><text x="16" y="445" fill="#152d22" font-size="11">Start (-8.035, 25.960) → End (-7.856, 25.917) mm</text><text x="16" y="467" fill="#152d22" font-size="11">Layer: top | Circuit JSON index: 1181 | Route indices: 4 → 5</text></svg>
