<svg xmlns="http://www.w3.org/2000/svg" width="800" height="490" viewBox="0 0 800 490"><title>Issue 343 — PcbTraceSegmentOddAngle</title><rect width="800" height="490" fill="#10271c"/><style>text{font-family:monospace}</style><text x="20" y="26" fill="#fff" font-size="16">Issue 343 — PcbTraceSegmentOddAngle</text><defs><clipPath id="board"><rect x="15" y="40" width="770" height="350"/></clipPath></defs><g clip-path="url(#board)"><line x1="-200.8072" y1="2.1787" x2="391.0558" y2="594.0417" stroke="#74a9d8" stroke-width="12.0964" stroke-linecap="round"/><line x1="406.1107" y1="403.2254" x2="398.611" y2="394.4354" stroke="#74a9d8" stroke-width="8.0643" stroke-linecap="round"/><line x1="398.611" y1="394.4354" x2="397.24" y2="383.1454" stroke="#74a9d8" stroke-width="8.0643" stroke-linecap="round"/><line x1="397.24" y1="383.1454" x2="398.6916" y2="376.5326" stroke="#74a9d8" stroke-width="8.0643" stroke-linecap="round"/><line x1="398.6916" y1="376.5326" x2="398.611" y2="367.1781" stroke="#74a9d8" stroke-width="8.0643" stroke-linecap="round"/><line x1="398.611" y1="367.1781" x2="398.2077" y2="359.8396" stroke="#74a9d8" stroke-width="8.0643" stroke-linecap="round"/><line x1="398.2077" y1="359.8396" x2="397.24" y2="350.7269" stroke="#74a9d8" stroke-width="8.0643" stroke-linecap="round"/><line x1="397.24" y1="350.7269" x2="395.6272" y2="342.6627" stroke="#74a9d8" stroke-width="8.0643" stroke-linecap="round"/><line x1="395.6272" y1="342.6627" x2="405.9495" y2="321.8568" stroke="#74a9d8" stroke-width="8.0643" stroke-linecap="round"/><line x1="405.9495" y1="321.8568" x2="411.2719" y2="310.3249" stroke="#74a9d8" stroke-width="8.0643" stroke-linecap="round"/><line x1="411.2719" y1="310.3249" x2="412.159" y2="286.2933" stroke="#74a9d8" stroke-width="8.0643" stroke-linecap="round"/><line x1="412.159" y1="286.2933" x2="412.3202" y2="270.2454" stroke="#74a9d8" stroke-width="8.0643" stroke-linecap="round"/><line x1="412.3202" y1="270.2454" x2="408.2075" y2="251.133" stroke="#74a9d8" stroke-width="8.0643" stroke-linecap="round"/><line x1="408.2075" y1="251.133" x2="399.498" y2="239.4398" stroke="#74a9d8" stroke-width="8.0643" stroke-linecap="round"/><line x1="399.498" y1="239.4398" x2="394.4982" y2="224.6822" stroke="#74a9d8" stroke-width="8.0643" stroke-linecap="round"/><line x1="394.4982" y1="224.6822" x2="405.5018" y2="205.3178" stroke="#74a9d8" stroke-width="8.0643" stroke-linecap="round"/><line x1="405.5018" y1="205.3178" x2="432.1584" y2="187.5059" stroke="#74a9d8" stroke-width="8.0643" stroke-linecap="round"/><line x1="432.1584" y1="187.5059" x2="436.8357" y2="189.0381" stroke="#74a9d8" stroke-width="8.0643" stroke-linecap="round"/><line x1="436.8357" y1="189.0381" x2="449.028" y2="169.008" stroke="#74a9d8" stroke-width="8.0643" stroke-linecap="round"/><line x1="449.028" y1="169.008" x2="449.028" y2="74.7501" stroke="#74a9d8" stroke-width="8.0643" stroke-linecap="round"/><line x1="449.028" y1="74.7501" x2="376.6568" y2="2.3789" stroke="#74a9d8" stroke-width="8.0643" stroke-linecap="round"/><line x1="448.017" y1="392.1773" x2="443.7578" y2="393.5372" stroke="#74a9d8" stroke-width="8.0643" stroke-linecap="round"/><line x1="443.7578" y1="393.5372" x2="432.7931" y2="393.5372" stroke="#74a9d8" stroke-width="8.0643" stroke-linecap="round"/><line x1="432.7931" y1="393.5372" x2="432.8355" y2="393.4949" stroke="#74a9d8" stroke-width="8.0643" stroke-linecap="round"/><line x1="432.8355" y1="393.4949" x2="432.8355" y2="286.8487" stroke="#74a9d8" stroke-width="8.0643" stroke-linecap="round"/><line x1="432.8355" y1="286.8487" x2="432.8355" y2="230.4232" stroke="#74a9d8" stroke-width="8.0643" stroke-linecap="round"/><line x1="432.8355" y1="230.4232" x2="430.0992" y2="227.687" stroke="#74a9d8" stroke-width="8.0643" stroke-linecap="round"/><line x1="500.2715" y1="6.4326" x2="587.0733" y2="99.8931" stroke="#74a9d8" stroke-width="8.0643" stroke-linecap="round"/><line x1="568.5529" y1="150.2209" x2="533.1602" y2="39.3213" stroke="#74a9d8" stroke-width="8.0643" stroke-linecap="round"/><line x1="533.1602" y1="39.3213" x2="533.1602" y2="-346.9411" stroke="#74a9d8" stroke-width="8.0643" stroke-linecap="round"/><line x1="394.4982" y1="224.6822" x2="405.5018" y2="205.3178" stroke="#ff5555" stroke-width="14.5157" stroke-linecap="round"/><circle cx="400" cy="215" r="10" fill="#fff" stroke="#ff5555" stroke-width="2"/><text x="400" y="219" text-anchor="middle" fill="#9b1111" font-size="11">1</text></g><rect x="0" y="400" width="800" height="90" fill="#f1f5f9"/><text x="16" y="423" fill="#152d22" font-size="11">source_trace_41_0 segment 30 on bottom is at 60.393° (15.393° from a 45° direction)</text><text x="16" y="445" fill="#152d22" font-size="11">Start (-22.048, 39.066) → End (-21.912, 39.306) mm</text><text x="16" y="467" fill="#152d22" font-size="11">Layer: bottom | Circuit JSON index: 957 | Route indices: 30 → 31</text></svg>
