<svg xmlns="http://www.w3.org/2000/svg" width="800" height="490" viewBox="0 0 800 490"><title>Issue 476 — PcbTraceSegmentOddAngle</title><rect width="800" height="490" fill="#10271c"/><style>text{font-family:monospace}</style><text x="20" y="26" fill="#fff" font-size="16">Issue 476 — PcbTraceSegmentOddAngle</text><defs><clipPath id="board"><rect x="15" y="40" width="770" height="350"/></clipPath></defs><g clip-path="url(#board)"><line x1="513.6429" y1="255.988" x2="460.3032" y2="255.988" stroke="#9aa9a2" stroke-width="8.2954" stroke-linecap="round"/><line x1="460.3032" y1="255.988" x2="451.173" y2="246.8759" stroke="#9aa9a2" stroke-width="8.2954" stroke-linecap="round"/><line x1="488.2456" y1="19.5213" x2="488.2456" y2="143.4315" stroke="#9aa9a2" stroke-width="12.4432" stroke-linecap="round"/><line x1="488.2456" y1="143.4315" x2="451.173" y2="180.5041" stroke="#9aa9a2" stroke-width="12.4432" stroke-linecap="round"/><line x1="446.4663" y1="117.8975" x2="446.4663" y2="175.7974" stroke="#9aa9a2" stroke-width="12.4432" stroke-linecap="round"/><line x1="446.4663" y1="175.7974" x2="451.173" y2="180.5041" stroke="#9aa9a2" stroke-width="12.4432" stroke-linecap="round"/><line x1="344.8306" y1="325.5038" x2="357.1079" y2="313.2266" stroke="#9aa9a2" stroke-width="8.2954" stroke-linecap="round"/><line x1="357.1079" y1="313.2266" x2="451.173" y2="313.2267" stroke="#9aa9a2" stroke-width="8.2954" stroke-linecap="round"/><line x1="144.6658" y1="280.0408" x2="451.173" y2="280.0408" stroke="#9aa9a2" stroke-width="8.2954" stroke-linecap="round"/><line x1="402.0144" y1="479.1353" x2="275.4839" y2="352.6047" stroke="#9aa9a2" stroke-width="8.2954" stroke-linecap="round"/><line x1="275.4839" y1="352.6047" x2="45.4613" y2="352.6047" stroke="#9aa9a2" stroke-width="8.2954" stroke-linecap="round"/><line x1="402.5469" y1="445.9494" x2="260.9762" y2="304.3787" stroke="#9aa9a2" stroke-width="8.2954" stroke-linecap="round"/><line x1="260.9762" y1="304.3787" x2="39.9497" y2="304.3787" stroke="#9aa9a2" stroke-width="8.2954" stroke-linecap="round"/><line x1="356.6931" y1="186.6381" x2="159.1785" y2="-10.8765" stroke="#9aa9a2" stroke-width="8.2954" stroke-linecap="round"/><line x1="585.9792" y1="80.4564" x2="546.3269" y2="40.8042" stroke="#9aa9a2" stroke-width="8.2954" stroke-linecap="round"/><line x1="451.173" y1="346.4127" x2="451.173" y2="379.5849" stroke="#9aa9a2" stroke-width="8.2954" stroke-linecap="round"/><line x1="451.173" y1="379.5849" x2="451.173" y2="379.5986" stroke="#9aa9a2" stroke-width="8.2954" stroke-linecap="round"/><line x1="519.6097" y1="112.0673" x2="519.6097" y2="150.1592" stroke="#9aa9a2" stroke-width="8.2954" stroke-linecap="round"/><line x1="519.6097" y1="150.1592" x2="502.5573" y2="167.2116" stroke="#9aa9a2" stroke-width="8.2954" stroke-linecap="round"/><line x1="502.5573" y1="167.2116" x2="505.3052" y2="182.0873" stroke="#9aa9a2" stroke-width="8.2954" stroke-linecap="round"/><line x1="505.3052" y1="182.0873" x2="491.5347" y2="215.7668" stroke="#9aa9a2" stroke-width="8.2954" stroke-linecap="round"/><line x1="491.5347" y1="215.7668" x2="494.5562" y2="208.3769" stroke="#9aa9a2" stroke-width="8.2954" stroke-linecap="round"/><line x1="494.5562" y1="208.3769" x2="458.5681" y2="206.2913" stroke="#9aa9a2" stroke-width="8.2954" stroke-linecap="round"/><line x1="458.5681" y1="206.2913" x2="451.173" y2="213.69" stroke="#9aa9a2" stroke-width="8.2954" stroke-linecap="round"/><line x1="451.173" y1="213.69" x2="451.1864" y2="213.6894" stroke="#9aa9a2" stroke-width="8.2954" stroke-linecap="round"/><line x1="451.1864" y1="213.6894" x2="520.8973" y2="213.6894" stroke="#9aa9a2" stroke-width="8.2954" stroke-linecap="round"/><line x1="520.8973" y1="213.6894" x2="548.532" y2="241.3241" stroke="#9aa9a2" stroke-width="8.2954" stroke-linecap="round"/><line x1="548.532" y1="241.3241" x2="548.532" y2="281.1051" stroke="#9aa9a2" stroke-width="8.2954" stroke-linecap="round"/><line x1="548.532" y1="281.1051" x2="483.2244" y2="346.4127" stroke="#9aa9a2" stroke-width="8.2954" stroke-linecap="round"/><line x1="483.2244" y1="346.4127" x2="451.173" y2="346.4127" stroke="#9aa9a2" stroke-width="8.2954" stroke-linecap="round"/><line x1="519.6097" y1="112.0673" x2="519.6097" y2="151.8587" stroke="#9aa9a2" stroke-width="8.2954" stroke-linecap="round"/><line x1="519.6097" y1="151.8587" x2="530.8721" y2="163.1211" stroke="#9aa9a2" stroke-width="8.2954" stroke-linecap="round"/><line x1="530.8721" y1="163.1211" x2="808.6313" y2="163.1211" stroke="#9aa9a2" stroke-width="8.2954" stroke-linecap="round"/><line x1="451.173" y1="379.5986" x2="409.2032" y2="379.5901" stroke="#9aa9a2" stroke-width="8.2954" stroke-linecap="round"/><line x1="409.2032" y1="379.5901" x2="393.165" y2="387.8204" stroke="#9aa9a2" stroke-width="8.2954" stroke-linecap="round"/><line x1="451.173" y1="213.69" x2="442.2348" y2="222.6282" stroke="#9aa9a2" stroke-width="8.2954" stroke-linecap="round"/><line x1="442.2348" y1="222.6282" x2="85.5249" y2="222.6282" stroke="#9aa9a2" stroke-width="8.2954" stroke-linecap="round"/><line x1="568.7203" y1="201.0309" x2="584.6708" y2="252.3089" stroke="#9aa9a2" stroke-width="8.2954" stroke-linecap="round"/><line x1="584.6708" y1="252.3089" x2="580.6318" y2="252.3089" stroke="#9aa9a2" stroke-width="8.2954" stroke-linecap="round"/><line x1="580.6318" y1="252.3089" x2="486.528" y2="346.4127" stroke="#9aa9a2" stroke-width="8.2954" stroke-linecap="round"/><line x1="486.528" y1="346.4127" x2="451.173" y2="346.4127" stroke="#9aa9a2" stroke-width="8.2954" stroke-linecap="round"/><line x1="451.173" y1="346.4127" x2="473.2277" y2="346.567" stroke="#9aa9a2" stroke-width="8.2954" stroke-linecap="round"/><line x1="473.2277" y1="346.567" x2="490.1203" y2="337.6429" stroke="#9aa9a2" stroke-width="8.2954" stroke-linecap="round"/><line x1="490.1203" y1="337.6429" x2="515.1726" y2="317.8168" stroke="#9aa9a2" stroke-width="8.2954" stroke-linecap="round"/><line x1="515.1726" y1="317.8168" x2="522.2702" y2="294.9766" stroke="#9aa9a2" stroke-width="8.2954" stroke-linecap="round"/><line x1="522.2702" y1="294.9766" x2="538.4512" y2="289.8119" stroke="#9aa9a2" stroke-width="8.2954" stroke-linecap="round"/><line x1="538.4512" y1="289.8119" x2="550.1702" y2="272.9144" stroke="#9aa9a2" stroke-width="8.2954" stroke-linecap="round"/><line x1="550.1702" y1="272.9144" x2="549.2086" y2="258.61" stroke="#9aa9a2" stroke-width="8.2954" stroke-linecap="round"/><line x1="549.2086" y1="258.61" x2="544.2819" y2="224.469" stroke="#9aa9a2" stroke-width="8.2954" stroke-linecap="round"/><line x1="544.2819" y1="224.469" x2="518.1057" y2="221.7368" stroke="#9aa9a2" stroke-width="8.2954" stroke-linecap="round"/><line x1="518.1057" y1="221.7368" x2="514.5428" y2="220.6383" stroke="#9aa9a2" stroke-width="8.2954" stroke-linecap="round"/><line x1="514.5428" y1="220.6383" x2="69.4329" y2="220.6383" stroke="#9aa9a2" stroke-width="8.2954" stroke-linecap="round"/><line x1="581.6455" y1="254.6597" x2="529.4858" y2="307.4939" stroke="#9aa9a2" stroke-width="8.2954" stroke-linecap="round"/><line x1="529.4858" y1="307.4939" x2="524.5455" y2="307.4939" stroke="#9aa9a2" stroke-width="8.2954" stroke-linecap="round"/><line x1="524.5455" y1="307.4939" x2="506.2001" y2="319.4503" stroke="#9aa9a2" stroke-width="8.2954" stroke-linecap="round"/><line x1="506.2001" y1="319.4503" x2="487.9088" y2="340.8634" stroke="#9aa9a2" stroke-width="8.2954" stroke-linecap="round"/><line x1="487.9088" y1="340.8634" x2="467.1055" y2="335.2096" stroke="#9aa9a2" stroke-width="8.2954" stroke-linecap="round"/><line x1="467.1055" y1="335.2096" x2="451.173" y2="346.4127" stroke="#9aa9a2" stroke-width="8.2954" stroke-linecap="round"/><line x1="70.1278" y1="219.9434" x2="394.2386" y2="219.9434" stroke="#9aa9a2" stroke-width="8.2954" stroke-linecap="round"/><line x1="394.2386" y1="219.9434" x2="405.7614" y2="210.0566" stroke="#9aa9a2" stroke-width="8.2954" stroke-linecap="round"/><line x1="405.7614" y1="210.0566" x2="771.6402" y2="175.9898" stroke="#9aa9a2" stroke-width="8.2954" stroke-linecap="round"/><line x1="394.2386" y1="219.9434" x2="405.7614" y2="210.0566" stroke="#ff5555" stroke-width="14.9318" stroke-linecap="round"/><circle cx="400" cy="215" r="10" fill="#fff" stroke="#ff5555" stroke-width="2"/><text x="400" y="219" text-anchor="middle" fill="#9b1111" font-size="11">1</text></g><rect x="0" y="400" width="800" height="90" fill="#f1f5f9"/><text x="16" y="423" fill="#152d22" font-size="11">source_net_1_mst6_0 segment 2 on top is at 40.630° (4.370° from a 45° direction)</text><text x="16" y="445" fill="#152d22" font-size="11">Start (-22.611, 33.125) → End (-22.472, 33.244) mm</text><text x="16" y="467" fill="#152d22" font-size="11">Layer: top | Circuit JSON index: 1152 | Route indices: 2 → 3</text></svg>
