<svg xmlns="http://www.w3.org/2000/svg" width="800" height="490" viewBox="0 0 800 490"><title>Issue 621 — PcbTraceSegmentOddAngle</title><rect width="800" height="490" fill="#10271c"/><style>text{font-family:monospace}</style><text x="20" y="26" fill="#fff" font-size="16">Issue 621 — PcbTraceSegmentOddAngle</text><defs><clipPath id="board"><rect x="15" y="40" width="770" height="350"/></clipPath></defs><g clip-path="url(#board)"><line x1="579.7242" y1="340.3355" x2="410.6911" y2="171.3024" stroke="#74a9d8" stroke-width="8.3357" stroke-linecap="round"/><line x1="410.6911" y1="171.3024" x2="104.5031" y2="171.3024" stroke="#74a9d8" stroke-width="8.3357" stroke-linecap="round"/><line x1="746.1895" y1="39.5832" x2="522.2197" y2="62.4471" stroke="#74a9d8" stroke-width="12.5036" stroke-linecap="round"/><line x1="214.1265" y1="107.5256" x2="222.0547" y2="107.5256" stroke="#74a9d8" stroke-width="8.3357" stroke-linecap="round"/><line x1="222.0547" y1="107.5256" x2="401.7774" y2="107.5256" stroke="#74a9d8" stroke-width="8.3357" stroke-linecap="round"/><line x1="401.7774" y1="107.5256" x2="497.7168" y2="203.4651" stroke="#74a9d8" stroke-width="8.3357" stroke-linecap="round"/><line x1="497.7168" y1="203.4651" x2="719.1568" y2="424.9051" stroke="#74a9d8" stroke-width="8.3357" stroke-linecap="round"/><line x1="667.7492" y1="186.4584" x2="528.932" y2="186.4584" stroke="#74a9d8" stroke-width="12.5036" stroke-linecap="round"/><line x1="528.932" y1="186.4584" x2="406.2337" y2="63.7601" stroke="#74a9d8" stroke-width="12.5036" stroke-linecap="round"/><line x1="406.2337" y1="63.7601" x2="175.9809" y2="64.0663" stroke="#74a9d8" stroke-width="12.5036" stroke-linecap="round"/><line x1="631.2417" y1="91.9816" x2="507.826" y2="98.4985" stroke="#74a9d8" stroke-width="12.5036" stroke-linecap="round"/><line x1="507.826" y1="98.4985" x2="458.4639" y2="42.2178" stroke="#74a9d8" stroke-width="12.5036" stroke-linecap="round"/><line x1="458.4639" y1="42.2178" x2="169.8491" y2="38.9024" stroke="#74a9d8" stroke-width="12.5036" stroke-linecap="round"/><line x1="694.2316" y1="508.688" x2="402.5777" y2="217.0341" stroke="#74a9d8" stroke-width="12.5036" stroke-linecap="round"/><line x1="402.5777" y1="217.0341" x2="397.4223" y2="212.9659" stroke="#74a9d8" stroke-width="12.5036" stroke-linecap="round"/><line x1="397.4223" y1="212.9659" x2="386.1647" y2="204.5215" stroke="#74a9d8" stroke-width="12.5036" stroke-linecap="round"/><line x1="386.1647" y1="204.5215" x2="249.714" y2="204.5215" stroke="#74a9d8" stroke-width="12.5036" stroke-linecap="round"/><line x1="249.714" y1="204.5215" x2="117.1537" y2="337.0819" stroke="#74a9d8" stroke-width="12.5036" stroke-linecap="round"/><line x1="909.8392" y1="885.2097" x2="410.9196" y2="386.29" stroke="#74a9d8" stroke-width="12.5036" stroke-linecap="round"/><line x1="410.9196" y1="386.29" x2="410.8983" y2="258.5672" stroke="#74a9d8" stroke-width="12.5036" stroke-linecap="round"/><line x1="410.8983" y1="258.5672" x2="-237.2501" y2="905.5679" stroke="#74a9d8" stroke-width="12.5036" stroke-linecap="round"/><line x1="402.5777" y1="217.0341" x2="397.4223" y2="212.9659" stroke="#ff5555" stroke-width="22.5064" stroke-linecap="round"/><circle cx="400" cy="215" r="10" fill="#fff" stroke="#ff5555" stroke-width="2"/><text x="400" y="219" text-anchor="middle" fill="#9b1111" font-size="11">1</text></g><rect x="0" y="400" width="800" height="90" fill="#f1f5f9"/><text x="16" y="423" fill="#152d22" font-size="11">source_trace_175_0 segment 5 on bottom is at 141.722° (6.722° from a 45° direction)</text><text x="16" y="445" fill="#152d22" font-size="11">Start (25.590, 56.867) → End (25.528, 56.916) mm</text><text x="16" y="467" fill="#152d22" font-size="11">Layer: bottom | Circuit JSON index: 1248 | Route indices: 5 → 6</text></svg>
