<svg xmlns="http://www.w3.org/2000/svg" width="800" height="490" viewBox="0 0 800 490"><title>Issue 154 — PcbTraceSegmentTooLong</title><rect width="800" height="490" fill="#10271c"/><style>text{font-family:monospace}</style><text x="20" y="26" fill="#fff" font-size="16">Issue 154 — PcbTraceSegmentTooLong</text><defs><clipPath id="board"><rect x="15" y="40" width="770" height="350"/></clipPath></defs><g clip-path="url(#board)"><line x1="517.6321" y1="402.8559" x2="151.1055" y2="36.3294" stroke="#9aa9a2" stroke-width="2.7647" stroke-linecap="round"/><line x1="556.1122" y1="701.0814" x2="556.1122" y2="-188.17" stroke="#9aa9a2" stroke-width="2.7647" stroke-linecap="round"/><line x1="417.4713" y1="72.6103" x2="418.213" y2="73.5505" stroke="#9aa9a2" stroke-width="2.7647" stroke-linecap="round"/><line x1="418.213" y1="73.5505" x2="418.213" y2="77.0499" stroke="#9aa9a2" stroke-width="2.7647" stroke-linecap="round"/><line x1="418.213" y1="77.0499" x2="418.213" y2="141.3883" stroke="#9aa9a2" stroke-width="2.7647" stroke-linecap="round"/><line x1="418.213" y1="141.3883" x2="494.8561" y2="218.0315" stroke="#9aa9a2" stroke-width="2.7647" stroke-linecap="round"/><line x1="494.8561" y1="218.0315" x2="525.3765" y2="218.0315" stroke="#9aa9a2" stroke-width="2.7647" stroke-linecap="round"/><line x1="525.3765" y1="218.0315" x2="546.2228" y2="238.8779" stroke="#9aa9a2" stroke-width="2.7647" stroke-linecap="round"/><line x1="546.2228" y1="238.8779" x2="546.2228" y2="717.3586" stroke="#9aa9a2" stroke-width="2.7647" stroke-linecap="round"/><line x1="517.6321" y1="332.6321" x2="282.3679" y2="97.3679" stroke="#9aa9a2" stroke-width="4.1471" stroke-linecap="round"/><line x1="282.3679" y1="97.3679" x2="282.3679" y2="-67.5622" stroke="#9aa9a2" stroke-width="4.1471" stroke-linecap="round"/><line x1="517.6321" y1="683.7514" x2="188.05" y2="354.1692" stroke="#9aa9a2" stroke-width="4.1471" stroke-linecap="round"/><line x1="517.6321" y1="332.6321" x2="282.3679" y2="97.3679" stroke="#ff5555" stroke-width="7.4647" stroke-linecap="round"/><circle cx="400" cy="215" r="10" fill="#fff" stroke="#ff5555" stroke-width="2"/><text x="400" y="219" text-anchor="middle" fill="#9b1111" font-size="11">1</text></g><rect x="0" y="400" width="800" height="90" fill="#f1f5f9"/><text x="16" y="423" fill="#152d22" font-size="11">source_trace_178_0 segment 0 on top is 12.034 mm long (maximum 5 mm)</text><text x="16" y="445" fill="#152d22" font-size="11">Start (41.000, 31.810) → End (32.490, 40.320) mm</text><text x="16" y="467" fill="#152d22" font-size="11">Layer: top | Circuit JSON index: 1246 | Route indices: 0 → 1</text></svg>
