<svg xmlns="http://www.w3.org/2000/svg" width="800" height="490" viewBox="0 0 800 490"><title>Issue 187 — PcbTraceSegmentOddAngle</title><rect width="800" height="490" fill="#10271c"/><style>text{font-family:monospace}</style><text x="20" y="26" fill="#fff" font-size="16">Issue 187 — PcbTraceSegmentOddAngle</text><defs><clipPath id="board"><rect x="15" y="40" width="770" height="350"/></clipPath></defs><g clip-path="url(#board)"><line x1="427.4605" y1="277.3545" x2="497.3652" y2="277.3545" stroke="#9aa9a2" stroke-width="8.1379" stroke-linecap="round"/><line x1="497.3652" y1="277.3545" x2="500.5309" y2="280.5282" stroke="#9aa9a2" stroke-width="8.1379" stroke-linecap="round"/><line x1="500.5309" y1="158.4594" x2="459.8413" y2="158.4594" stroke="#9aa9a2" stroke-width="8.1379" stroke-linecap="round"/><line x1="459.8413" y1="158.4594" x2="446.1777" y2="158.4594" stroke="#9aa9a2" stroke-width="8.1379" stroke-linecap="round"/><line x1="446.1777" y1="158.4594" x2="458.9293" y2="151.4482" stroke="#9aa9a2" stroke-width="8.1379" stroke-linecap="round"/><line x1="500.5309" y1="158.4594" x2="417.8443" y2="158.4594" stroke="#9aa9a2" stroke-width="8.1379" stroke-linecap="round"/><line x1="417.8443" y1="158.4594" x2="404.3909" y2="145.006" stroke="#9aa9a2" stroke-width="8.1379" stroke-linecap="round"/><line x1="404.3909" y1="145.006" x2="392.5918" y2="133.2079" stroke="#9aa9a2" stroke-width="8.1379" stroke-linecap="round"/><line x1="392.5918" y1="133.2079" x2="390.839" y2="106.7038" stroke="#9aa9a2" stroke-width="8.1379" stroke-linecap="round"/><line x1="390.839" y1="106.7038" x2="391.49" y2="108.4092" stroke="#9aa9a2" stroke-width="8.1379" stroke-linecap="round"/><line x1="391.49" y1="108.4092" x2="392.9619" y2="99.2446" stroke="#9aa9a2" stroke-width="8.1379" stroke-linecap="round"/><line x1="392.9619" y1="99.2446" x2="418.2355" y2="74.1713" stroke="#9aa9a2" stroke-width="8.1379" stroke-linecap="round"/><line x1="418.2355" y1="74.1713" x2="497.6734" y2="74.2146" stroke="#9aa9a2" stroke-width="8.1379" stroke-linecap="round"/><line x1="497.6734" y1="74.2146" x2="500.5309" y2="77.0802" stroke="#9aa9a2" stroke-width="8.1379" stroke-linecap="round"/><line x1="500.5309" y1="199.149" x2="451.5467" y2="199.149" stroke="#9aa9a2" stroke-width="8.1379" stroke-linecap="round"/><line x1="451.5467" y1="199.149" x2="443.0315" y2="190.6338" stroke="#9aa9a2" stroke-width="8.1379" stroke-linecap="round"/><line x1="443.0315" y1="190.6338" x2="442.639" y2="190.6338" stroke="#9aa9a2" stroke-width="8.1379" stroke-linecap="round"/><line x1="442.639" y1="190.6338" x2="441.146" y2="189.1408" stroke="#9aa9a2" stroke-width="8.1379" stroke-linecap="round"/><line x1="417.0691" y1="111.4447" x2="498.6906" y2="119.6183" stroke="#9aa9a2" stroke-width="8.1379" stroke-linecap="round"/><line x1="498.6906" y1="119.6183" x2="500.5309" y2="117.7698" stroke="#9aa9a2" stroke-width="8.1379" stroke-linecap="round"/><line x1="441.146" y1="189.1408" x2="490.5308" y2="189.1408" stroke="#9aa9a2" stroke-width="8.1379" stroke-linecap="round"/><line x1="490.5308" y1="189.1408" x2="500.5309" y2="199.149" stroke="#9aa9a2" stroke-width="8.1379" stroke-linecap="round"/><line x1="500.5309" y1="36.3906" x2="653.7191" y2="36.3906" stroke="#9aa9a2" stroke-width="8.1379" stroke-linecap="round"/><line x1="500.5309" y1="333.4247" x2="450.6027" y2="332.2949" stroke="#9aa9a2" stroke-width="8.1379" stroke-linecap="round"/><line x1="450.6027" y1="332.2949" x2="428.1168" y2="311.8007" stroke="#9aa9a2" stroke-width="8.1379" stroke-linecap="round"/><line x1="428.1168" y1="311.8007" x2="412.1612" y2="306.4068" stroke="#9aa9a2" stroke-width="8.1379" stroke-linecap="round"/><line x1="412.1612" y1="306.4068" x2="409.8219" y2="303.8349" stroke="#9aa9a2" stroke-width="8.1379" stroke-linecap="round"/><line x1="409.8219" y1="303.8349" x2="397.3522" y2="291.3652" stroke="#9aa9a2" stroke-width="8.1379" stroke-linecap="round"/><line x1="397.3522" y1="291.3652" x2="397.3522" y2="206.8274" stroke="#9aa9a2" stroke-width="8.1379" stroke-linecap="round"/><line x1="397.3522" y1="206.8274" x2="404.929" y2="206.8274" stroke="#9aa9a2" stroke-width="8.1379" stroke-linecap="round"/><line x1="404.929" y1="206.8274" x2="395.071" y2="223.1726" stroke="#9aa9a2" stroke-width="8.1379" stroke-linecap="round"/><line x1="569.7927" y1="350.433" x2="571.7221" y2="359.9296" stroke="#9aa9a2" stroke-width="8.1379" stroke-linecap="round"/><line x1="571.7221" y1="359.9296" x2="515.3822" y2="413.386" stroke="#9aa9a2" stroke-width="8.1379" stroke-linecap="round"/><line x1="404.929" y1="206.8274" x2="395.071" y2="223.1726" stroke="#ff5555" stroke-width="14.6483" stroke-linecap="round"/><circle cx="400" cy="215" r="10" fill="#fff" stroke="#ff5555" stroke-width="2"/><text x="400" y="219" text-anchor="middle" fill="#9b1111" font-size="11">1</text></g><rect x="0" y="400" width="800" height="90" fill="#f1f5f9"/><text x="16" y="423" fill="#152d22" font-size="11">source_trace_4__source_net_4_mst2_0 segment 7 on top is at 238.905° (13.905° from a 45° direction)</text><text x="16" y="445" fill="#152d22" font-size="11">Start (-19.346, -0.844) → End (-19.467, -1.045) mm</text><text x="16" y="467" fill="#152d22" font-size="11">Layer: top | Circuit JSON index: 68 | Route indices: 7 → 8</text></svg>
