<svg xmlns="http://www.w3.org/2000/svg" width="800" height="490" viewBox="0 0 800 490"><title>Issue 212 — PcbTraceSegmentOddAngle</title><rect width="800" height="490" fill="#10271c"/><style>text{font-family:monospace}</style><text x="20" y="26" fill="#fff" font-size="16">Issue 212 — PcbTraceSegmentOddAngle</text><defs><clipPath id="board"><rect x="15" y="40" width="770" height="350"/></clipPath></defs><g clip-path="url(#board)"><line x1="398.7028" y1="555.0407" x2="169.8149" y2="326.1528" stroke="#9aa9a2" stroke-width="8.3692" stroke-linecap="round"/><line x1="837.9658" y1="112.0115" x2="501.6512" y2="112.0115" stroke="#9aa9a2" stroke-width="8.3692" stroke-linecap="round"/><line x1="501.6512" y1="112.0115" x2="479.6653" y2="90.0256" stroke="#9aa9a2" stroke-width="8.3692" stroke-linecap="round"/><line x1="479.6653" y1="90.0256" x2="478.0786" y2="84.4952" stroke="#9aa9a2" stroke-width="8.3692" stroke-linecap="round"/><line x1="478.0786" y1="84.4952" x2="478.2834" y2="85.0119" stroke="#9aa9a2" stroke-width="8.3692" stroke-linecap="round"/><line x1="478.2834" y1="85.0119" x2="444.2942" y2="59.4952" stroke="#9aa9a2" stroke-width="8.3692" stroke-linecap="round"/><line x1="414.7047" y1="89.0848" x2="438.3412" y2="106.5452" stroke="#9aa9a2" stroke-width="8.3692" stroke-linecap="round"/><line x1="438.3412" y1="106.5452" x2="445.8954" y2="117.9361" stroke="#9aa9a2" stroke-width="8.3692" stroke-linecap="round"/><line x1="445.8954" y1="117.9361" x2="445.8824" y2="117.9183" stroke="#9aa9a2" stroke-width="8.3692" stroke-linecap="round"/><line x1="445.8824" y1="117.9183" x2="490.0428" y2="169.7072" stroke="#9aa9a2" stroke-width="8.3692" stroke-linecap="round"/><line x1="490.0428" y1="169.7072" x2="546.783" y2="169.7072" stroke="#9aa9a2" stroke-width="8.3692" stroke-linecap="round"/><line x1="546.783" y1="169.7072" x2="563.979" y2="169.7072" stroke="#9aa9a2" stroke-width="8.3692" stroke-linecap="round"/><line x1="563.979" y1="169.7072" x2="564.0782" y2="169.8063" stroke="#9aa9a2" stroke-width="8.3692" stroke-linecap="round"/><line x1="467.3302" y1="173.6561" x2="453.3197" y2="173.6561" stroke="#9aa9a2" stroke-width="8.3692" stroke-linecap="round"/><line x1="453.3197" y1="173.6561" x2="448.5673" y2="168.9038" stroke="#9aa9a2" stroke-width="8.3692" stroke-linecap="round"/><line x1="448.5673" y1="168.9038" x2="464.9864" y2="141.3306" stroke="#9aa9a2" stroke-width="8.3692" stroke-linecap="round"/><line x1="464.9864" y1="141.3306" x2="414.7047" y2="89.0848" stroke="#9aa9a2" stroke-width="8.3692" stroke-linecap="round"/><line x1="352.8396" y1="367.6542" x2="353.7879" y2="311.3812" stroke="#9aa9a2" stroke-width="8.3692" stroke-linecap="round"/><line x1="353.7879" y1="311.3812" x2="375.8773" y2="295.2843" stroke="#9aa9a2" stroke-width="8.3692" stroke-linecap="round"/><line x1="375.8773" y1="295.2843" x2="378.296" y2="279.0497" stroke="#9aa9a2" stroke-width="8.3692" stroke-linecap="round"/><line x1="378.296" y1="279.0497" x2="381.0681" y2="230.4238" stroke="#9aa9a2" stroke-width="8.3692" stroke-linecap="round"/><line x1="381.0681" y1="230.4238" x2="325.9359" y2="177.8536" stroke="#9aa9a2" stroke-width="8.3692" stroke-linecap="round"/><line x1="351.7866" y1="279.5701" x2="346.8496" y2="266.0092" stroke="#9aa9a2" stroke-width="8.3692" stroke-linecap="round"/><line x1="346.8496" y1="266.0092" x2="345.473" y2="259.1225" stroke="#9aa9a2" stroke-width="8.3692" stroke-linecap="round"/><line x1="345.473" y1="259.1225" x2="335.5639" y2="235.2675" stroke="#9aa9a2" stroke-width="8.3692" stroke-linecap="round"/><line x1="335.5639" y1="235.2675" x2="314.5046" y2="226.4507" stroke="#9aa9a2" stroke-width="8.3692" stroke-linecap="round"/><line x1="314.5046" y1="226.4507" x2="296.3463" y2="207.4432" stroke="#9aa9a2" stroke-width="8.3692" stroke-linecap="round"/><line x1="305.2188" y1="361.1263" x2="237.1671" y2="293.0746" stroke="#9aa9a2" stroke-width="8.3692" stroke-linecap="round"/><line x1="237.1671" y1="293.0746" x2="237.1671" y2="266.6224" stroke="#9aa9a2" stroke-width="8.3692" stroke-linecap="round"/><line x1="306.2301" y1="416.8651" x2="155.9874" y2="266.6224" stroke="#9aa9a2" stroke-width="8.3692" stroke-linecap="round"/><line x1="742.8861" y1="202.5718" x2="435.1021" y2="202.5718" stroke="#9aa9a2" stroke-width="8.3692" stroke-linecap="round"/><line x1="435.1021" y1="202.5718" x2="435.1021" y2="189.2726" stroke="#9aa9a2" stroke-width="8.3692" stroke-linecap="round"/><line x1="435.1021" y1="189.2726" x2="416.652" y2="170.8225" stroke="#9aa9a2" stroke-width="8.3692" stroke-linecap="round"/><line x1="416.652" y1="170.8225" x2="416.652" y2="161.7424" stroke="#9aa9a2" stroke-width="8.3692" stroke-linecap="round"/><line x1="416.652" y1="161.7424" x2="412.0829" y2="153.4211" stroke="#9aa9a2" stroke-width="8.3692" stroke-linecap="round"/><line x1="412.0829" y1="153.4211" x2="420.4178" y2="145.1663" stroke="#9aa9a2" stroke-width="8.3692" stroke-linecap="round"/><line x1="420.4178" y1="145.1663" x2="385.1151" y2="118.6744" stroke="#9aa9a2" stroke-width="8.3692" stroke-linecap="round"/><line x1="1905.2232" y1="40.2034" x2="550.0006" y2="41.1181" stroke="#9aa9a2" stroke-width="8.3692" stroke-linecap="round"/><line x1="550.0006" y1="41.1181" x2="547.5659" y2="40.907" stroke="#9aa9a2" stroke-width="8.3692" stroke-linecap="round"/><line x1="547.5659" y1="40.907" x2="528.819" y2="19.0268" stroke="#9aa9a2" stroke-width="8.3692" stroke-linecap="round"/><line x1="511.1848" y1="80.2559" x2="511.1848" y2="78.9975" stroke="#9aa9a2" stroke-width="8.3692" stroke-linecap="round"/><line x1="511.1848" y1="78.9975" x2="508.0711" y2="55.0999" stroke="#9aa9a2" stroke-width="8.3692" stroke-linecap="round"/><line x1="508.0711" y1="55.0999" x2="475.5216" y2="40.397" stroke="#9aa9a2" stroke-width="8.3692" stroke-linecap="round"/><line x1="475.5216" y1="40.397" x2="475.3403" y2="38.6027" stroke="#9aa9a2" stroke-width="8.3692" stroke-linecap="round"/><line x1="475.3403" y1="38.6027" x2="473.8839" y2="29.9056" stroke="#9aa9a2" stroke-width="8.3692" stroke-linecap="round"/><line x1="138.8459" y1="210.065" x2="236.3185" y2="116.1646" stroke="#9aa9a2" stroke-width="8.3692" stroke-linecap="round"/><line x1="236.3185" y1="116.1646" x2="317.1961" y2="121.5365" stroke="#9aa9a2" stroke-width="8.3692" stroke-linecap="round"/><line x1="317.1961" y1="121.5365" x2="353" y2="139.9312" stroke="#9aa9a2" stroke-width="8.3692" stroke-linecap="round"/><line x1="353" y1="139.9312" x2="355.4883" y2="157.6234" stroke="#9aa9a2" stroke-width="8.3692" stroke-linecap="round"/><line x1="355.4883" y1="157.6234" x2="393.1318" y2="174.975" stroke="#9aa9a2" stroke-width="8.3692" stroke-linecap="round"/><line x1="393.1318" y1="174.975" x2="393.2628" y2="178.1755" stroke="#9aa9a2" stroke-width="8.3692" stroke-linecap="round"/><line x1="393.2628" y1="178.1755" x2="397.1963" y2="187.3816" stroke="#9aa9a2" stroke-width="8.3692" stroke-linecap="round"/><line x1="397.1963" y1="187.3816" x2="398.368" y2="195.6671" stroke="#9aa9a2" stroke-width="8.3692" stroke-linecap="round"/><line x1="398.368" y1="195.6671" x2="399.0375" y2="203.7853" stroke="#9aa9a2" stroke-width="8.3692" stroke-linecap="round"/><line x1="399.0375" y1="203.7853" x2="399.6234" y2="211.5686" stroke="#9aa9a2" stroke-width="8.3692" stroke-linecap="round"/><line x1="399.6234" y1="211.5686" x2="400.3766" y2="218.4314" stroke="#9aa9a2" stroke-width="8.3692" stroke-linecap="round"/><line x1="400.3766" y1="218.4314" x2="402.5526" y2="222.616" stroke="#9aa9a2" stroke-width="8.3692" stroke-linecap="round"/><line x1="402.5526" y1="222.616" x2="403.9754" y2="228.7255" stroke="#9aa9a2" stroke-width="8.3692" stroke-linecap="round"/><line x1="403.9754" y1="228.7255" x2="405.7329" y2="233.8307" stroke="#9aa9a2" stroke-width="8.3692" stroke-linecap="round"/><line x1="405.7329" y1="233.8307" x2="405.8061" y2="258.139" stroke="#9aa9a2" stroke-width="8.3692" stroke-linecap="round"/><line x1="405.8061" y1="258.139" x2="405.8061" y2="199.2274" stroke="#9aa9a2" stroke-width="8.3692" stroke-linecap="round"/><line x1="405.8061" y1="199.2274" x2="382.9206" y2="175.1006" stroke="#9aa9a2" stroke-width="8.3692" stroke-linecap="round"/><line x1="382.9206" y1="175.1006" x2="381.8751" y2="167.7098" stroke="#9aa9a2" stroke-width="8.3692" stroke-linecap="round"/><line x1="381.8751" y1="167.7098" x2="355.5255" y2="148.264" stroke="#9aa9a2" stroke-width="8.3692" stroke-linecap="round"/><line x1="405.8061" y1="258.139" x2="405.8061" y2="190.8146" stroke="#9aa9a2" stroke-width="8.3692" stroke-linecap="round"/><line x1="405.8061" y1="190.8146" x2="392.6116" y2="178.9378" stroke="#9aa9a2" stroke-width="8.3692" stroke-linecap="round"/><line x1="392.6116" y1="178.9378" x2="381.0022" y2="165.9839" stroke="#9aa9a2" stroke-width="8.3692" stroke-linecap="round"/><line x1="381.0022" y1="165.9839" x2="356.8809" y2="158.6397" stroke="#9aa9a2" stroke-width="8.3692" stroke-linecap="round"/><line x1="356.8809" y1="158.6397" x2="353.7455" y2="141.1817" stroke="#9aa9a2" stroke-width="8.3692" stroke-linecap="round"/><line x1="353.7455" y1="141.1817" x2="353.7088" y2="141.0052" stroke="#9aa9a2" stroke-width="8.3692" stroke-linecap="round"/><line x1="353.7088" y1="141.0052" x2="329.3248" y2="131.1302" stroke="#9aa9a2" stroke-width="8.3692" stroke-linecap="round"/><line x1="329.3248" y1="131.1302" x2="326.8828" y2="93.8841" stroke="#9aa9a2" stroke-width="8.3692" stroke-linecap="round"/><line x1="326.8828" y1="93.8841" x2="327.3135" y2="82.8138" stroke="#9aa9a2" stroke-width="8.3692" stroke-linecap="round"/><line x1="327.3135" y1="82.8138" x2="328.55" y2="85.5771" stroke="#9aa9a2" stroke-width="8.3692" stroke-linecap="round"/><line x1="328.55" y1="85.5771" x2="328.8321" y2="-85.0226" stroke="#9aa9a2" stroke-width="8.3692" stroke-linecap="round"/><line x1="405.8061" y1="258.139" x2="405.8061" y2="195.9428" stroke="#9aa9a2" stroke-width="8.3692" stroke-linecap="round"/><line x1="405.8061" y1="195.9428" x2="383.8955" y2="174.0322" stroke="#9aa9a2" stroke-width="8.3692" stroke-linecap="round"/><line x1="383.8955" y1="174.0322" x2="382.9609" y2="168.5048" stroke="#9aa9a2" stroke-width="8.3692" stroke-linecap="round"/><line x1="382.9609" y1="168.5048" x2="355.5255" y2="148.264" stroke="#9aa9a2" stroke-width="8.3692" stroke-linecap="round"/><line x1="186.299" y1="-19.5045" x2="329.5736" y2="130.31" stroke="#9aa9a2" stroke-width="8.3692" stroke-linecap="round"/><line x1="329.5736" y1="130.31" x2="329.6156" y2="130.352" stroke="#9aa9a2" stroke-width="8.3692" stroke-linecap="round"/><line x1="329.6156" y1="130.352" x2="355.5255" y2="148.264" stroke="#9aa9a2" stroke-width="8.3692" stroke-linecap="round"/><line x1="310.9053" y1="267.3483" x2="318.8062" y2="281.7611" stroke="#9aa9a2" stroke-width="8.3692" stroke-linecap="round"/><line x1="318.8062" y1="281.7611" x2="300.7117" y2="281.5491" stroke="#9aa9a2" stroke-width="8.3692" stroke-linecap="round"/><line x1="300.7117" y1="281.5491" x2="290.5526" y2="262.0453" stroke="#9aa9a2" stroke-width="8.3692" stroke-linecap="round"/><line x1="290.5526" y1="262.0453" x2="266.7567" y2="237.0328" stroke="#9aa9a2" stroke-width="8.3692" stroke-linecap="round"/><line x1="310.9053" y1="267.3483" x2="300.4055" y2="268.4846" stroke="#9aa9a2" stroke-width="8.3692" stroke-linecap="round"/><line x1="300.4055" y1="268.4846" x2="266.7567" y2="237.0328" stroke="#9aa9a2" stroke-width="8.3692" stroke-linecap="round"/><line x1="399.6234" y1="211.5686" x2="400.3766" y2="218.4314" stroke="#ff5555" stroke-width="15.0646" stroke-linecap="round"/><circle cx="400" cy="215" r="10" fill="#fff" stroke="#ff5555" stroke-width="2"/><text x="400" y="219" text-anchor="middle" fill="#9b1111" font-size="11">1</text></g><rect x="0" y="400" width="800" height="90" fill="#f1f5f9"/><text x="16" y="423" fill="#152d22" font-size="11">source_trace_2__source_net_2_mst5_0 segment 13 on top is at 276.263° (6.263° from a 45° direction)</text><text x="16" y="445" fill="#152d22" font-size="11">Start (0.011, -3.516) → End (0.020, -3.598) mm</text><text x="16" y="467" fill="#152d22" font-size="11">Layer: top | Circuit JSON index: 75 | Route indices: 13 → 14</text></svg>
