<svg xmlns="http://www.w3.org/2000/svg" width="800" height="490" viewBox="0 0 800 490"><title>Issue 327 — PcbTraceSegmentOddAngle</title><rect width="800" height="490" fill="#10271c"/><style>text{font-family:monospace}</style><text x="20" y="26" fill="#fff" font-size="16">Issue 327 — PcbTraceSegmentOddAngle</text><defs><clipPath id="board"><rect x="15" y="40" width="770" height="350"/></clipPath></defs><g clip-path="url(#board)"><line x1="209.3228" y1="365.8434" x2="238.5878" y2="392.1194" stroke="#9aa9a2" stroke-width="7.865" stroke-linecap="round"/><line x1="238.5878" y1="392.1194" x2="263.1651" y2="411.2164" stroke="#9aa9a2" stroke-width="7.865" stroke-linecap="round"/><line x1="206.1241" y1="306.3865" x2="221.0188" y2="306.3865" stroke="#9aa9a2" stroke-width="7.865" stroke-linecap="round"/><line x1="221.0188" y1="306.3865" x2="243.0126" y2="343.5646" stroke="#9aa9a2" stroke-width="7.865" stroke-linecap="round"/><line x1="243.0126" y1="343.5646" x2="255.6287" y2="356.1199" stroke="#9aa9a2" stroke-width="7.865" stroke-linecap="round"/><line x1="255.6287" y1="356.1199" x2="290.9722" y2="383.4094" stroke="#9aa9a2" stroke-width="7.865" stroke-linecap="round"/><line x1="214.3608" y1="267.3759" x2="265.7924" y2="318.8074" stroke="#9aa9a2" stroke-width="7.865" stroke-linecap="round"/><line x1="265.7924" y1="318.8074" x2="281.6039" y2="330.4294" stroke="#9aa9a2" stroke-width="7.865" stroke-linecap="round"/><line x1="281.6039" y1="330.4294" x2="284.8144" y2="329.2912" stroke="#9aa9a2" stroke-width="7.865" stroke-linecap="round"/><line x1="284.8144" y1="329.2912" x2="318.7792" y2="355.6022" stroke="#9aa9a2" stroke-width="7.865" stroke-linecap="round"/><line x1="300.9807" y1="252.7363" x2="300.9807" y2="271.3932" stroke="#9aa9a2" stroke-width="7.865" stroke-linecap="round"/><line x1="300.9807" y1="271.3932" x2="315.5652" y2="285.9777" stroke="#9aa9a2" stroke-width="7.865" stroke-linecap="round"/><line x1="315.5652" y1="285.9777" x2="316.8046" y2="304.7664" stroke="#9aa9a2" stroke-width="7.865" stroke-linecap="round"/><line x1="316.8046" y1="304.7664" x2="345.6393" y2="318.353" stroke="#9aa9a2" stroke-width="7.865" stroke-linecap="round"/><line x1="345.6393" y1="318.353" x2="345.6901" y2="318.3273" stroke="#9aa9a2" stroke-width="7.865" stroke-linecap="round"/><line x1="345.6901" y1="318.3273" x2="346.5864" y2="327.7951" stroke="#9aa9a2" stroke-width="7.865" stroke-linecap="round"/><line x1="122.7167" y1="37.3086" x2="342.7719" y2="257.3638" stroke="#9aa9a2" stroke-width="7.865" stroke-linecap="round"/><line x1="342.7719" y1="257.3638" x2="342.4562" y2="275.1105" stroke="#9aa9a2" stroke-width="7.865" stroke-linecap="round"/><line x1="342.4562" y1="275.1105" x2="342.5007" y2="275.1337" stroke="#9aa9a2" stroke-width="7.865" stroke-linecap="round"/><line x1="342.5007" y1="275.1337" x2="374.3935" y2="299.988" stroke="#9aa9a2" stroke-width="7.865" stroke-linecap="round"/><line x1="705.5541" y1="-58.9446" x2="479.8069" y2="162.9095" stroke="#9aa9a2" stroke-width="7.865" stroke-linecap="round"/><line x1="479.8069" y1="162.9095" x2="361.8628" y2="163.9487" stroke="#9aa9a2" stroke-width="7.865" stroke-linecap="round"/><line x1="361.8628" y1="163.9487" x2="343.0567" y2="166.7858" stroke="#9aa9a2" stroke-width="7.865" stroke-linecap="round"/><line x1="343.0567" y1="166.7858" x2="328.5776" y2="181.2649" stroke="#9aa9a2" stroke-width="7.865" stroke-linecap="round"/><line x1="328.5776" y1="181.2649" x2="326.078" y2="183.7645" stroke="#9aa9a2" stroke-width="7.865" stroke-linecap="round"/><line x1="326.078" y1="183.7645" x2="326.078" y2="199.8694" stroke="#9aa9a2" stroke-width="7.865" stroke-linecap="round"/><line x1="326.078" y1="199.8694" x2="326.078" y2="209.5465" stroke="#9aa9a2" stroke-width="7.865" stroke-linecap="round"/><line x1="326.078" y1="209.5465" x2="332.4328" y2="217.2225" stroke="#9aa9a2" stroke-width="7.865" stroke-linecap="round"/><line x1="332.4328" y1="217.2225" x2="349.3845" y2="227.5173" stroke="#9aa9a2" stroke-width="7.865" stroke-linecap="round"/><line x1="349.3845" y1="227.5173" x2="353.9361" y2="235.5219" stroke="#9aa9a2" stroke-width="7.865" stroke-linecap="round"/><line x1="353.9361" y1="235.5219" x2="402.2006" y2="272.1809" stroke="#9aa9a2" stroke-width="7.865" stroke-linecap="round"/><line x1="627.5094" y1="188.0967" x2="581.5565" y2="244.3738" stroke="#9aa9a2" stroke-width="7.865" stroke-linecap="round"/><line x1="586.8706" y1="160.2541" x2="553.7494" y2="193.3753" stroke="#9aa9a2" stroke-width="7.865" stroke-linecap="round"/><line x1="553.7494" y1="193.3753" x2="553.7494" y2="216.5666" stroke="#9aa9a2" stroke-width="7.865" stroke-linecap="round"/><line x1="457.8148" y1="216.5666" x2="475.0615" y2="223.1124" stroke="#9aa9a2" stroke-width="7.865" stroke-linecap="round"/><line x1="475.0615" y1="223.1124" x2="486.9317" y2="244.5125" stroke="#9aa9a2" stroke-width="7.865" stroke-linecap="round"/><line x1="486.9317" y1="244.5125" x2="486.9199" y2="244.4953" stroke="#9aa9a2" stroke-width="7.865" stroke-linecap="round"/><line x1="486.9199" y1="244.4953" x2="482.3819" y2="519.1734" stroke="#9aa9a2" stroke-width="7.865" stroke-linecap="round"/><line x1="353.8326" y1="201.2333" x2="385.6177" y2="201.2333" stroke="#9aa9a2" stroke-width="7.865" stroke-linecap="round"/><line x1="385.6177" y1="201.2333" x2="414.3823" y2="228.7667" stroke="#9aa9a2" stroke-width="7.865" stroke-linecap="round"/><line x1="414.3823" y1="228.7667" x2="414.4011" y2="228.7671" stroke="#9aa9a2" stroke-width="7.865" stroke-linecap="round"/><line x1="414.4011" y1="228.7671" x2="412.9431" y2="226.5114" stroke="#9aa9a2" stroke-width="7.865" stroke-linecap="round"/><line x1="412.9431" y1="226.5114" x2="430.0077" y2="244.3738" stroke="#9aa9a2" stroke-width="7.865" stroke-linecap="round"/><line x1="430.0077" y1="244.3738" x2="413.7163" y2="227.2467" stroke="#9aa9a2" stroke-width="7.865" stroke-linecap="round"/><line x1="413.7163" y1="227.2467" x2="414.401" y2="228.7671" stroke="#9aa9a2" stroke-width="7.865" stroke-linecap="round"/><line x1="414.401" y1="228.7671" x2="407.9253" y2="228.6283" stroke="#9aa9a2" stroke-width="7.865" stroke-linecap="round"/><line x1="407.9253" y1="228.6283" x2="371.3388" y2="196.2028" stroke="#9aa9a2" stroke-width="7.865" stroke-linecap="round"/><line x1="371.3388" y1="196.2028" x2="358.6551" y2="196.4107" stroke="#9aa9a2" stroke-width="7.865" stroke-linecap="round"/><line x1="358.6551" y1="196.4107" x2="353.8326" y2="201.2333" stroke="#9aa9a2" stroke-width="7.865" stroke-linecap="round"/><line x1="385.6177" y1="201.2333" x2="414.3823" y2="228.7667" stroke="#ff5555" stroke-width="14.1571" stroke-linecap="round"/><circle cx="400" cy="215" r="10" fill="#fff" stroke="#ff5555" stroke-width="2"/><text x="400" y="219" text-anchor="middle" fill="#9b1111" font-size="11">1</text></g><rect x="0" y="400" width="800" height="90" fill="#f1f5f9"/><text x="16" y="423" fill="#152d22" font-size="11">source_trace_0__source_net_0_mst12_0 segment 16 on top is at 316.253° (1.253° from a 45° direction)</text><text x="16" y="445" fill="#152d22" font-size="11">Start (-4.068, 4.312) → End (-3.702, 3.962) mm</text><text x="16" y="467" fill="#152d22" font-size="11">Layer: top | Circuit JSON index: 138 | Route indices: 16 → 17</text></svg>
